Coordinates
version=1
nRows=17
nColumns=40
inDegrees=yes

Units are S.I. units (second, meters, Newtons, ...)
Angles are in degrees.

endheader
time	pelvis_tilt	pelvis_list	pelvis_rotation	pelvis_tx	pelvis_ty	pelvis_tz	hip_flexion_r	hip_adduction_r	hip_rotation_r	knee_angle_r	knee_angle_r_beta	ankle_angle_r	subtalar_angle_r	mtp_angle_r	hip_flexion_l	hip_adduction_l	hip_rotation_l	knee_angle_l	knee_angle_l_beta	ankle_angle_l	subtalar_angle_l	mtp_angle_l	lumbar_extension	lumbar_bending	lumbar_rotation	arm_flex_r	arm_add_r	arm_rot_r	elbow_flex_r	pro_sup_r	wrist_flex_r	wrist_dev_r	arm_flex_l	arm_add_l	arm_rot_l	elbow_flex_l	pro_sup_l	wrist_flex_l	wrist_dev_l
     29.44000000	     -4.77039989	     -6.85535687	      1.62504189	      1.08472273	      0.93064440	      0.42041586	     30.13208991	     -5.01670560	     -6.91303513	     63.30233466	     63.30233466	     -0.67161383	    -16.73620563	      2.80320707	     18.79003256	     -7.98630561	     -5.63195648	     24.94723670	     24.94723670	     12.85228201	    -13.85224290	      2.98100436	    -11.55392269	      4.19143556	      2.17435641	      4.85776180	    -14.91339658	     -7.86890782	     35.98457470	     42.76682674	      0.00000000	      0.00000000	     15.03787417	    -15.86900528	      5.56365219	     40.98641323	     42.92238054	      0.00000000	      0.00000000
     29.45385714	     -4.75974714	     -6.95201575	      1.15647354	      1.08298504	      0.93135582	      0.41975277	     30.83425001	     -4.82269015	     -7.12013308	     61.86996382	     61.86996382	     -0.34938578	    -16.77481375	      2.84789682	     18.18645779	     -8.14601391	     -6.11969988	     24.60009608	     24.60009608	     13.06657915	    -13.69868488	      2.97597348	    -11.72556051	      4.38139001	      2.18124719	      4.50423646	    -15.07794110	     -7.94326205	     35.27237273	     42.86076847	      0.00000000	      0.00000000	     15.55757315	    -15.88133029	      5.61464015	     41.46812956	     42.98594682	      0.00000000	      0.00000000
     29.46771429	     -4.76269200	     -7.03041950	      0.66676873	      1.08126256	      0.93205557	      0.41913048	     31.45206012	     -4.61790024	     -7.33798689	     60.22293503	     60.22293503	     -0.07623016	    -16.72485940	      2.84516852	     17.56097991	     -8.26981378	     -6.59838567	     24.19195423	     24.19195423	     13.23573302	    -13.61922446	      2.94777813	    -11.88208652	      4.54019139	      2.18841187	      4.25148182	    -15.20910667	     -8.15021218	     34.37647984	     42.97558814	      0.00000000	      0.00000000	     15.99793667	    -15.95665424	      5.80872012	     42.09844373	     43.03825523	      0.00000000	      0.00000000
     29.48157143	     -4.85018640	     -7.09882573	      0.19736461	      1.07951170	      0.93261961	      0.41847314	     32.03581813	     -4.41420874	     -7.60010293	     58.30612271	     58.30612271	      0.20747853	    -16.52670352	      2.92527003	     17.04358125	     -8.35246750	     -7.00308842	     23.78598476	     23.78598476	     13.37270553	    -13.60222679	      2.96341365	    -11.94400528	      4.73713519	      2.04011410	      3.97401337	    -15.33437980	     -8.27990340	     33.90661158	     43.02798123	      0.00000000	      0.00000000	     16.34718857	    -16.02800030	      5.90521923	     42.50084837	     43.05935453	      0.00000000	      0.00000000
     29.49542857	     -4.99613284	     -6.92361476	     -0.31869663	      1.07767890	      0.93276178	      0.41787576	     32.68537917	     -4.39374241	     -7.65756413	     56.27758909	     56.27758909	      0.56682406	    -16.19858319	      3.03313841	     16.76122881	     -8.20015546	     -7.46162197	     23.73307089	     23.73307089	     13.58778692	    -13.71961613	      2.89191408	    -11.90093121	      4.60351092	      1.76146729	      3.76141690	    -15.44444263	     -8.33100746	     33.74803744	     43.04415557	      0.00000000	      0.00000000	     16.76648789	    -16.16496530	      5.90032523	     42.73807923	     43.07218089	      0.00000000	      0.00000000
     29.50928571	     -4.89349778	     -7.12398881	     -0.85594345	      1.07621538	      0.93392296	      0.41769725	     32.64762224	     -3.91912660	     -8.01304309	     53.48943345	     53.48943345	      0.81256814	    -15.67798187	      2.74305659	     15.71610594	     -8.43693237	     -8.08234430	     22.75458688	     22.75458688	     13.59124079	    -13.47049507	      2.90201635	    -12.26196555	      4.86586361	      2.26131887	      3.59408526	    -15.58895362	     -8.76865781	     32.40774773	     43.18406326	      0.00000000	      0.00000000	     17.12842592	    -16.15589353	      6.30755436	     43.95384337	     43.09547122	      0.00000000	      0.00000000
     29.52314286	     -5.07611098	     -7.14001184	     -1.36774764	      1.07448026	      0.93433851	      0.41737439	     32.90025904	     -3.64567274	     -8.27725636	     50.49957926	     50.49957926	      0.96141057	    -14.80122673	      2.45363389	     15.27035305	     -8.46123281	     -8.51898005	     22.27601143	     22.27601143	     13.64706367	    -13.42773080	      2.81053715	    -12.29167473	      5.00228947	      2.14660906	      3.58560645	    -15.62352454	     -9.14479508	     31.72542352	     43.27697044	      0.00000000	      0.00000000	     17.28440368	    -16.31301171	      6.60491370	     44.63172839	     43.11050776	      0.00000000	      0.00000000
     29.53700000	     -5.43480314	     -7.04593360	     -1.93257329	      1.07262647	      0.93427195	      0.41735627	     33.26615005	     -3.35804101	     -8.38587908	     47.27210710	     47.27210710	      1.33607455	    -13.83405812	      2.40891583	     15.07846182	     -8.40016528	     -9.04749314	     21.90313596	     21.90313596	     13.71870877	    -13.50271923	      2.79513727	    -12.10474858	      5.00174521	      2.10702759	      3.51523443	    -15.57805316	     -9.27957116	     31.47586000	     43.30992193	      0.00000000	      0.00000000	     17.53194778	    -16.45660819	      6.68268536	     45.00969708	     43.12179835	      0.00000000	      0.00000000
     29.55085714	     -5.49788268	     -6.93590455	     -2.41338076	      1.07122223	      0.93473803	      0.41722176	     32.88282033	     -3.24022174	     -8.90635606	     43.29641290	     43.29641290	      1.03429967	    -12.05960955	     -0.42967035	     14.32412086	     -8.29289998	     -9.68779474	     21.10658807	     21.10658807	     13.57987024	    -13.19468044	      2.18550194	    -12.23548754	      4.96894828	      2.13567652	      3.97501152	    -15.41530300	    -10.70238841	     29.79137642	     43.61408911	      0.00000000	      0.00000000	     17.22498633	    -16.86348195	      7.59274432	     47.21887056	     43.18246849	      0.00000000	      0.00000000
     29.56471429	     -5.78998377	     -7.00562560	     -2.85895353	      1.06955730	      0.93473815	      0.41746672	     32.64840681	     -2.68735906	     -9.18385507	     39.09280112	     39.09280112	      1.27823922	    -10.50934364	     -0.51652690	     14.08983829	     -8.39613046	    -10.01402724	     20.75989130	     20.75989130	     13.63807223	    -13.29393834	      2.13342588	    -12.13284349	      5.16328165	      2.02526146	      4.05154971	    -15.40456949	    -10.93409816	     29.69323811	     43.65969306	      0.00000000	      0.00000000	     17.36702662	    -16.92864673	      7.67642020	     47.52189049	     43.20639223	      0.00000000	      0.00000000
     29.57857143	     -6.11870228	     -6.97697770	     -3.31457632	      1.06802823	      0.93455506	      0.41785933	     32.26478513	     -2.22492004	     -9.52063558	     34.63462617	     34.63462617	      1.50017195	     -8.36938680	     -0.61104555	     13.84497762	     -8.41135670	    -10.43190735	     20.34216386	     20.34216386	     13.70369736	    -13.23927098	      2.02327747	    -11.96826859	      5.21804686	      2.05394349	      4.06578485	    -15.32982943	    -11.12796258	     29.59766229	     43.69907453	      0.00000000	      0.00000000	     17.52295003	    -16.93579918	      7.73651252	     47.96329285	     43.23050049	      0.00000000	      0.00000000
     29.59242857	     -6.25634562	     -6.86132066	     -3.65650238	      1.06680144	      0.93435293	      0.41818322	     31.32953979	     -1.93057741	    -10.23155316	     29.66074042	     29.66074042	      0.54143931	     -5.84494987	     -4.09534243	     13.35739812	     -8.32574626	    -10.94402852	     19.84417203	     19.84417203	     13.44053343	    -13.13811788	      0.82932073	    -12.02474428	      5.19934873	      1.86906928	      4.52056081	    -14.96530260	    -13.18441814	     29.01407721	     44.13265724	      0.00000000	      0.00000000	     17.09614019	    -17.33445774	      8.04336682	     49.87045645	     43.52726718	      0.00000000	      0.00000000
     29.60628571	     -6.54036505	     -6.81379261	     -3.96112676	      1.06558916	      0.93386493	      0.41875214	     30.54328900	     -1.40403130	    -10.64205533	     24.96030084	     24.96030084	      0.59766118	     -3.34527221	     -3.31349131	     13.14792767	     -8.32432933	    -11.24684104	     19.57588612	     19.57588612	     13.59351013	    -13.06549481	      0.68691022	    -11.84607282	      5.28130314	      1.89961207	      4.52090387	    -14.90150948	    -13.26420431	     29.04873086	     44.16130291	      0.00000000	      0.00000000	     17.27302363	    -17.22106235	      8.06152177	     50.08165542	     43.56115240	      0.00000000	      0.00000000
     29.62014286	     -6.65862316	     -6.66875894	     -4.23217850	      1.06466168	      0.93334383	      0.41941533	     29.56515484	     -1.05739015	    -11.38359819	     20.62518357	     20.62518357	      0.73256049	     -0.23515600	     -2.12361792	     12.76316361	     -8.24147684	    -11.67633511	     19.35589049	     19.35589049	     13.77006747	    -12.81353893	      0.31580016	    -11.84004570	      5.19887749	      1.93286245	      4.54461522	    -14.81007400	    -13.38624547	     29.21610839	     44.20263604	      0.00000000	      0.00000000	     17.41698832	    -17.15021089	      8.05322462	     50.47151589	     43.61873291	      0.00000000	      0.00000000
     29.63400000	     -6.90006623	     -6.55593053	     -4.39485478	      1.06399276	      0.93252082	      0.42018602	     28.69080078	     -0.61540269	    -11.90455452	     16.68585702	     16.68585702	      0.63175414	      2.05959975	     -0.71211159	     12.53329020	     -8.17407416	    -11.90673007	     19.15008167	     19.15008167	     13.95703336	    -12.69201423	      0.00512477	    -11.56534626	      5.22807867	      1.90022212	      4.52432956	    -14.69087366	    -13.43663338	     29.38750300	     44.22169974	      0.00000000	      0.00000000	     17.42196337	    -17.05815064	      8.07996454	     50.76951067	     43.65032781	      0.00000000	      0.00000000
     29.64785714	     -7.01126047	     -6.36767126	     -4.55090526	      1.06346952	      0.93175147	      0.42096951	     28.02327102	     -0.44712980	    -12.97032393	     14.04896232	     14.04896232	      2.00967532	      5.15635953	      4.53853072	     12.17019039	     -8.05116547	    -12.30810577	     18.96710980	     18.96710980	     13.89100478	    -12.49114073	     -1.13615886	    -11.48063543	      5.14884449	      1.83897075	      4.39638240	    -14.56346828	    -13.58186828	     30.28795014	     44.35999051	      0.00000000	      0.00000000	     17.22057621	    -17.06057944	      7.96070200	     51.66331959	     43.89269774	      0.00000000	      0.00000000
     29.66171429	     -7.09084057	     -6.18571185	     -4.65328288	      1.06325915	      0.93095935	      0.42195167	     27.19090917	     -0.12712598	    -13.40546449	     11.58438066	     11.58438066	      1.73754668	      6.40035008	      5.48798247	     11.77367774	     -7.90146780	    -12.47760537	     18.81845346	     18.81845346	     14.14253825	    -12.40227843	     -1.29719880	    -11.32050501	      5.08044245	      1.83529237	      4.47175731	    -14.45844779	    -13.52764538	     30.44869796	     44.37880552	      0.00000000	      0.00000000	     17.24632329	    -16.93392399	      7.98676139	     51.74848081	     43.92974624	      0.00000000	      0.00000000
